<?xml version="1.0" standalone="no"?>
<!DOCTYPE svg PUBLIC "-//W3C//DTD SVG 20010904//EN"
 "http://www.w3.org/TR/2001/REC-SVG-20010904/DTD/svg10.dtd">
<svg version="1.0" xmlns="http://www.w3.org/2000/svg"
 width="512.000000pt" height="512.000000pt" viewBox="0 0 512.000000 512.000000"
 preserveAspectRatio="xMidYMid meet">

<g transform="translate(0.000000,512.000000) scale(0.100000,-0.100000)"
fill="#fff" stroke="none">
<path d="M681 4784 c-169 -45 -301 -180 -346 -351 -23 -86 -23 -3660 0 -3746
45 -173 178 -307 350 -352 84 -21 466 -21 550 0 172 45 305 179 350 352 23 86
23 3660 0 3746 -45 173 -178 307 -350 352 -81 21 -475 20 -554 -1z m525 -330
c15 -11 37 -33 48 -48 l21 -27 0 -1819 0 -1819 -21 -27 c-51 -68 -53 -69 -294
-69 -241 0 -243 1 -294 69 l-21 27 -3 1792 c-1 986 0 1806 3 1824 3 18 18 47
32 64 47 55 67 59 295 56 191 -2 209 -4 234 -23z"/>
<path d="M4176 4784 c-32 -8 -85 -28 -118 -46 -66 -35 -109 -74 -1277 -1155
-799 -739 -797 -736 -839 -873 -23 -74 -23 -226 0 -300 41 -130 66 -159 488
-549 1298 -1202 1547 -1429 1603 -1464 291 -179 673 -19 752 314 13 56 15 292
15 1849 0 1557 -2 1793 -15 1849 -64 271 -339 440 -609 375z m222 -337 c23
-15 48 -44 61 -69 l21 -44 0 -1774 0 -1774 -21 -44 c-44 -89 -161 -128 -245
-80 -23 13 -467 416 -988 897 -711 657 -951 885 -966 916 -25 53 -25 117 0
170 15 31 255 259 966 916 521 481 965 884 988 897 54 31 128 27 184 -11z"/>
</g>
</svg>
