<?xml version="1.0" standalone="no"?>
<!DOCTYPE svg PUBLIC "-//W3C//DTD SVG 20010904//EN"
 "http://www.w3.org/TR/2001/REC-SVG-20010904/DTD/svg10.dtd">
<svg version="1.0" xmlns="http://www.w3.org/2000/svg"
 width="512.000000pt" height="512.000000pt" viewBox="0 0 512.000000 512.000000"
 preserveAspectRatio="xMidYMid meet">

<g transform="translate(0.000000,512.000000) scale(0.100000,-0.100000)"
fill="#fff" stroke="none">
<path d="M706 4785 c-185 -47 -342 -211 -376 -394 -14 -74 -14 -3588 0 -3662
16 -84 74 -193 139 -258 167 -167 418 -197 618 -74 70 43 1957 1782 2005 1847
143 195 143 437 0 632 -48 65 -1935 1804 -2005 1847 -34 21 -84 45 -112 53
-73 22 -198 27 -269 9z m195 -323 c19 -10 463 -413 987 -896 758 -700 956
-887 973 -923 26 -53 22 -132 -8 -183 -18 -31 -1863 -1742 -1931 -1790 -28
-20 -46 -25 -96 -25 -79 0 -133 32 -165 98 l-21 44 2 1785 3 1784 27 41 c49
74 153 104 229 65z"/>
<path d="M3881 4784 c-169 -45 -301 -180 -346 -351 -23 -86 -23 -3660 0 -3746
45 -173 178 -307 350 -352 84 -21 466 -21 550 0 172 45 305 179 350 352 23 86
23 3660 0 3746 -45 173 -178 307 -350 352 -81 21 -475 20 -554 -1z m525 -330
c15 -11 37 -33 48 -48 l21 -27 0 -1819 0 -1819 -21 -27 c-51 -68 -53 -69 -294
-69 -241 0 -243 1 -294 69 l-21 27 -3 1792 c-1 986 0 1806 3 1824 3 18 18 47
32 64 47 55 67 59 295 56 191 -2 209 -4 234 -23z"/>
</g>
</svg>
