<?xml version="1.0" standalone="no"?>
<!DOCTYPE svg PUBLIC "-//W3C//DTD SVG 20010904//EN"
 "http://www.w3.org/TR/2001/REC-SVG-20010904/DTD/svg10.dtd">
<svg version="1.0" xmlns="http://www.w3.org/2000/svg"
 width="512.000000pt" height="512.000000pt" viewBox="0 0 512.000000 512.000000"
 preserveAspectRatio="xMidYMid meet">

<g transform="translate(0.000000,512.000000) scale(0.100000,-0.100000)"
fill="#fff" stroke="none">
<path d="M1042 4780 c-95 -25 -172 -70 -242 -140 -72 -72 -115 -147 -140 -246
-20 -76 -20 -114 -20 -1838 0 -1935 -3 -1821 61 -1948 41 -82 145 -186 227
-227 133 -67 288 -78 423 -29 45 17 486 290 1430 888 750 474 1397 886 1438
913 172 119 257 292 249 507 -8 183 -86 335 -230 443 -26 20 -735 432 -1963
1142 -49 28 -263 152 -475 275 -212 123 -414 235 -450 248 -91 34 -211 39
-308 12z m213 -319 c22 -10 661 -377 1420 -815 1067 -616 1389 -806 1418 -838
93 -102 83 -281 -22 -369 -47 -40 -2751 -1744 -2816 -1775 -27 -13 -63 -24
-79 -24 -86 0 -180 67 -204 146 -16 55 -18 3497 -1 3541 21 56 61 102 112 128
60 30 116 32 172 6z"/>
</g>
</svg>
