<?xml version="1.0" standalone="no"?>
<!DOCTYPE svg PUBLIC "-//W3C//DTD SVG 20010904//EN"
 "http://www.w3.org/TR/2001/REC-SVG-20010904/DTD/svg10.dtd">
<svg version="1.0" xmlns="http://www.w3.org/2000/svg"
 width="512.000000pt" height="512.000000pt" viewBox="0 0 512.000000 512.000000"
 preserveAspectRatio="xMidYMid meet">

<g transform="translate(0.000000,512.000000) scale(0.100000,-0.100000)"
fill="#deb040" stroke="none">
<path d="M3765 4736 c-91 -41 -132 -156 -86 -244 11 -20 117 -134 235 -252
l216 -215 -1587 -5 -1588 -5 -80 -27 c-244 -83 -428 -282 -489 -529 -13 -52
-16 -119 -16 -330 0 -250 1 -266 21 -298 30 -49 57 -69 114 -82 61 -14 120 -1
165 37 54 46 55 51 60 329 l5 260 31 65 c39 83 101 145 184 184 l65 31 1560 3
1560 2 -222 -222 c-121 -123 -228 -237 -237 -255 -70 -140 80 -299 231 -243
37 14 811 786 829 827 8 18 14 51 14 73 0 22 -6 55 -14 73 -18 41 -792 813
-829 827 -39 14 -106 12 -142 -4z"/>
<path d="M4507 2365 c-41 -14 -81 -46 -100 -80 -8 -13 -14 -110 -17 -280 l-5
-260 -31 -65 c-39 -83 -101 -145 -184 -184 l-65 -31 -1560 -3 -1560 -2 222
222 c121 123 228 237 237 255 70 140 -80 299 -231 243 -37 -14 -811 -786 -829
-827 -18 -41 -18 -105 0 -146 18 -41 792 -813 829 -827 42 -15 108 -12 146 8
88 44 126 155 83 238 -11 21 -118 136 -236 254 l-216 215 1587 5 1588 5 80 27
c244 83 428 282 489 529 13 52 16 119 16 330 0 250 -1 266 -21 298 -28 46 -56
68 -106 80 -53 14 -69 13 -116 -4z"/>
</g>
</svg>
