<?xml version="1.0" standalone="no"?>
<!DOCTYPE svg PUBLIC "-//W3C//DTD SVG 20010904//EN"
 "http://www.w3.org/TR/2001/REC-SVG-20010904/DTD/svg10.dtd">
<svg version="1.0" xmlns="http://www.w3.org/2000/svg"
 width="512.000000pt" height="512.000000pt" viewBox="0 0 512.000000 512.000000"
 preserveAspectRatio="xMidYMid meet">

<g transform="translate(0.000000,512.000000) scale(0.100000,-0.100000)"
fill="#fff" stroke="none">
<path d="M4080 4288 c-64 -44 -75 -68 -78 -184 l-4 -104 -283 0 c-307 0 -375
-7 -500 -55 -101 -38 -200 -104 -281 -187 -39 -40 -439 -525 -889 -1078 -450
-553 -841 -1032 -869 -1064 -28 -33 -78 -77 -110 -98 -100 -64 -132 -70 -403
-77 -265 -7 -267 -7 -317 -75 -29 -39 -29 -133 0 -172 50 -68 54 -69 297 -72
249 -4 330 5 451 49 109 39 208 104 292 191 39 40 448 537 909 1103 461 567
862 1053 890 1081 57 57 150 106 233 123 31 6 163 11 317 11 l265 0 0 -95 c0
-59 5 -108 14 -129 30 -72 127 -113 198 -83 20 8 150 92 289 185 276 185 291
199 291 282 0 84 -13 97 -305 291 -263 176 -269 179 -321 179 -39 0 -62 -6
-86 -22z"/>
<path d="M415 3986 c-94 -41 -124 -168 -58 -247 46 -54 70 -59 305 -59 242 0
304 -11 403 -71 74 -45 96 -69 359 -394 251 -309 275 -331 355 -321 50 7 104
43 126 86 19 37 19 107 1 142 -23 43 -440 554 -520 636 -116 120 -258 196
-424 228 -100 19 -504 19 -547 0z"/>
<path d="M2494 2211 c-80 -36 -116 -136 -77 -211 30 -57 474 -600 545 -666 78
-73 160 -124 254 -160 124 -47 192 -54 500 -54 l284 0 0 -95 c0 -59 5 -108 14
-129 30 -72 127 -113 198 -83 20 8 150 92 289 185 177 118 260 180 273 202 25
44 24 119 -3 163 -25 41 -509 370 -572 388 -69 21 -150 -16 -183 -85 -11 -24
-16 -62 -16 -130 l0 -96 -270 0 c-156 0 -291 5 -322 11 -62 13 -150 54 -202
95 -21 16 -152 169 -291 340 -215 263 -261 314 -295 328 -52 20 -75 20 -126
-3z"/>
</g>
</svg>
