<?xml version="1.0" standalone="no"?>
<!DOCTYPE svg PUBLIC "-//W3C//DTD SVG 20010904//EN"
 "http://www.w3.org/TR/2001/REC-SVG-20010904/DTD/svg10.dtd">
<svg version="1.0" xmlns="http://www.w3.org/2000/svg"
 width="512.000000pt" height="512.000000pt" viewBox="0 0 512.000000 512.000000"
 preserveAspectRatio="xMidYMid meet">

<g transform="translate(0.000000,512.000000) scale(0.100000,-0.100000)"
fill="#fff" stroke="none">
<path d="M2707 4470 c-20 -5 -58 -21 -85 -34 -26 -13 -314 -225 -641 -470
l-594 -446 -322 0 c-252 0 -333 -3 -378 -15 -173 -45 -307 -178 -352 -350 -22
-88 -22 -1102 0 -1190 45 -172 179 -305 352 -350 45 -12 126 -15 378 -15 l322
0 594 -446 c360 -271 620 -459 659 -478 59 -28 74 -31 160 -31 86 0 101 3 162
32 93 44 151 100 196 191 l37 76 0 1616 0 1616 -37 76 c-68 136 -188 217 -336
224 -42 2 -94 -1 -115 -6z m151 -346 l22 -25 0 -1539 0 -1539 -24 -27 c-51
-60 -34 -71 -691 422 -330 247 -616 461 -635 474 l-35 25 -377 5 c-361 5 -378
6 -404 26 -15 11 -37 33 -48 48 -21 27 -21 38 -21 566 0 528 0 539 21 566 11
15 33 37 48 48 26 20 43 21 404 26 l377 5 35 25 c19 13 303 225 630 471 328
245 602 449 610 452 25 10 64 -3 88 -29z"/>
<path d="M4090 3828 c-56 -39 -75 -73 -75 -136 0 -64 -1 -62 108 -188 171
-197 281 -424 333 -689 25 -124 25 -386 0 -510 -52 -265 -162 -492 -333 -689
-109 -126 -108 -124 -108 -188 0 -63 19 -97 75 -135 38 -27 106 -31 148 -9 37
19 148 136 214 226 125 171 212 344 272 543 56 185 70 286 70 507 0 221 -14
322 -70 507 -60 199 -147 372 -272 543 -66 90 -177 207 -214 226 -42 22 -110
18 -148 -8z"/>
<path d="M3655 3395 c-48 -17 -93 -67 -101 -112 -11 -61 4 -98 74 -181 114
-136 168 -244 198 -400 26 -138 13 -282 -39 -424 -31 -87 -76 -160 -154 -254
-39 -47 -65 -88 -69 -110 -22 -118 86 -218 199 -185 74 22 210 189 287 354
191 408 125 867 -176 1221 -80 95 -140 120 -219 91z"/>
</g>
</svg>
